<?xml version="1.0" encoding="UTF-8"?>
<svg id="Layer_1" data-name="Layer 1" xmlns="http://www.w3.org/2000/svg" viewBox="0 0 1500 1500">
  <path d="M336.8,885.47l-85.79,565.3h997.96l-85.65-565.3h-256.89v-29.43c2.17-.87,4.33-1.76,6.49-2.67,49.84-21.08,94.6-51.25,133.02-89.68,38.42-38.42,68.6-83.18,89.68-133.02,21.83-51.62,32.91-106.44,32.91-162.92s-11.07-111.3-32.91-162.92c-21.08-49.84-51.25-94.6-89.68-133.02-38.42-38.42-83.18-68.6-133.02-89.68-51.62-21.83-106.44-32.9-162.92-32.9s-111.3,11.07-162.92,32.9c-49.84,21.08-94.6,51.25-133.02,89.68s-68.6,83.18-89.68,133.02c-21.83,51.62-32.9,106.44-32.9,162.92s11.07,111.3,32.9,162.92c21.08,49.84,51.25,94.6,89.68,133.02,38.42,38.42,83.18,68.6,133.02,89.68,2.16.91,4.32,1.8,6.49,2.67v29.43h-256.77ZM465.5,660.41c-31.42-46.2-50.94-99.19-56.98-155.16h118.93c1.91,42.03,7.02,82.78,15.08,121.09-28.08,9.59-53.97,20.99-77.03,34.07ZM541.12,316.01c-7.25,36.31-11.88,74.71-13.67,114.24h-118.93c5.65-52.36,23.07-102.11,51.02-146.13,24.66,12.43,52.08,23.11,81.58,31.89ZM1040.46,284.12c27.95,44.02,45.38,93.78,51.03,146.13h-118.93c-1.79-39.53-6.42-77.93-13.67-114.24,29.5-8.78,56.91-19.46,81.58-31.89ZM712.5,798.46c-21.57-14.59-42.44-41.2-60.26-77.73-6.36-13.03-12.15-26.94-17.38-41.59,25.03-5.06,50.96-8.69,77.64-10.86v130.17ZM787.5,798.46v-132.44c27.4.52,54.18,2.5,80.13,5.93-5.85,17.3-12.48,33.63-19.87,48.78-17.82,36.52-38.69,63.14-60.26,77.73ZM787.5,591.01v-85.76h109.99c-1.61,32.44-5.29,63.87-10.92,93.62-31.9-4.6-65.13-7.27-99.06-7.87ZM972.56,505.25h118.93c-5.29,49.06-20.93,95.83-45.88,137.74-26.11-11.7-54.85-21.58-85.54-29.49,6.58-34.53,10.8-70.89,12.49-108.25ZM897.49,430.25h-109.99v-86.47c33.86-1.54,66.86-5.15,98.38-10.69,6.02,30.79,9.94,63.43,11.61,97.16ZM787.5,268.7v-131.66c21.57,14.59,42.44,41.2,60.26,77.73,6.93,14.2,13.19,29.44,18.76,45.54-25.54,4.25-51.94,7.05-79.02,8.39ZM712.5,137.05v131.66c-27.09-1.34-53.49-4.14-79.02-8.39,5.58-16.1,11.84-31.34,18.76-45.54,17.82-36.52,38.69-63.14,60.26-77.73ZM712.5,343.78v86.47h-109.99c1.67-33.73,5.59-66.37,11.61-97.16,31.52,5.54,64.52,9.15,98.38,10.69ZM602.51,505.25h109.99v87.83c-33.74,2.49-66.47,7.06-97.54,13.56-6.49-32.02-10.7-66.11-12.45-101.39ZM903.89,775.06c3.88-6.86,7.64-14,11.28-21.44,10.14-20.78,19.04-43.36,26.64-67.36,20.19,5.23,39.3,11.41,56.95,18.4-1.92,2.02-3.87,4.02-5.85,6-26.47,26.47-56.51,48.09-89.02,64.41ZM992.09,224.05c-16.05,7.18-33.55,13.65-52.17,19.3-7.18-21.81-15.45-42.39-24.76-61.47-3.63-7.44-7.4-14.59-11.28-21.45,32.18,16.15,61.93,37.51,88.2,63.61ZM596.11,160.44c-3.88,6.86-7.64,14-11.28,21.45-9.31,19.08-17.58,39.67-24.76,61.47-18.62-5.65-36.12-12.13-52.17-19.31,26.28-26.11,56.02-47.46,88.21-63.61ZM515.46,718.72c14.32-7.24,30.04-13.89,46.89-19.83,6.64,19.32,14.14,37.64,22.49,54.74,3.63,7.44,7.4,14.59,11.28,21.45-29.14-14.63-56.28-33.53-80.65-56.35ZM750,886.27c27.6,0,54.81-2.65,81.43-7.9v271.1h75v-189h192.4l62.92,415.3H338.25l63.02-415.3h192.29v189h75v-271.1c26.63,5.25,53.83,7.9,81.43,7.9Z"/>
</svg>